<svg xmlns="http://www.w3.org/2000/svg" viewBox="0 0 512 512">
  <defs>
    <linearGradient id="bg" x1="0" y1="0" x2="512" y2="512" gradientUnits="userSpaceOnUse">
      <stop stop-color="#1e3a5f"/>
      <stop offset="1" stop-color="#0f766e"/>
    </linearGradient>
    <linearGradient id="arc" x1="160" y1="128" x2="352" y2="384" gradientUnits="userSpaceOnUse">
      <stop stop-color="#5eead4"/>
      <stop offset="1" stop-color="#38bdf8"/>
    </linearGradient>
  </defs>
  <rect width="512" height="512" fill="url(#bg)"/>
  <circle cx="256" cy="256" r="118" stroke="rgba(255,255,255,0.14)" stroke-width="8" fill="none"/>
  <path d="M256 138 A118 118 0 0 1 374 256 L256 256 Z" fill="#34d399"/>
  <path d="M256 256 L374 256 A118 118 0 0 1 256 374 Z" fill="#38bdf8"/>
  <path d="M256 374 A118 118 0 0 1 138 256 L256 256 Z" fill="#818cf8"/>
  <path d="M256 256 L138 256 A118 118 0 0 1 256 138 Z" fill="#2dd4bf"/>
  <circle cx="256" cy="256" r="46" fill="url(#bg)"/>
  <path d="M256 182 A74 74 0 0 1 330 256" stroke="url(#arc)" stroke-width="12" stroke-linecap="round" fill="none"/>
  <path d="M330 256 L318 246 M330 256 L318 266" stroke="#5eead4" stroke-width="10" stroke-linecap="round" stroke-linejoin="round"/>
  <path d="M256 330 A74 74 0 0 1 182 256" stroke="rgba(255,255,255,0.55)" stroke-width="9" stroke-linecap="round" fill="none"/>
  <path d="M182 256 L194 246 M182 256 L194 266" stroke="rgba(255,255,255,0.55)" stroke-width="9" stroke-linecap="round" stroke-linejoin="round"/>
</svg>
