<svg xmlns="http://www.w3.org/2000/svg" viewBox="0 0 512 512" fill="none">
  <defs>
    <linearGradient id="bg" x1="64" y1="48" x2="448" y2="464" gradientUnits="userSpaceOnUse">
      <stop stop-color="#1e3a5f"/>
      <stop offset="1" stop-color="#0f766e"/>
    </linearGradient>
    <linearGradient id="arc" x1="160" y1="128" x2="352" y2="384" gradientUnits="userSpaceOnUse">
      <stop stop-color="#5eead4"/>
      <stop offset="1" stop-color="#38bdf8"/>
    </linearGradient>
  </defs>
  <rect width="512" height="512" rx="112" fill="url(#bg)"/>
  <circle cx="256" cy="256" r="132" stroke="rgba(255,255,255,0.12)" stroke-width="8"/>
  <path d="M256 124 A132 132 0 0 1 388 256 L256 256 Z" fill="#34d399"/>
  <path d="M256 256 L388 256 A132 132 0 0 1 256 388 Z" fill="#38bdf8"/>
  <path d="M256 388 A132 132 0 0 1 124 256 L256 256 Z" fill="#818cf8"/>
  <path d="M256 256 L124 256 A132 132 0 0 1 256 124 Z" fill="#2dd4bf"/>
  <circle cx="256" cy="256" r="52" fill="url(#bg)"/>
  <path d="M256 168 A88 88 0 0 1 344 256" stroke="url(#arc)" stroke-width="14" stroke-linecap="round" fill="none"/>
  <path d="M344 256 L328 244 M344 256 L328 268" stroke="#5eead4" stroke-width="12" stroke-linecap="round" stroke-linejoin="round"/>
  <path d="M256 344 A88 88 0 0 1 168 256" stroke="rgba(255,255,255,0.55)" stroke-width="10" stroke-linecap="round" fill="none"/>
  <path d="M168 256 L184 244 M168 256 L184 268" stroke="rgba(255,255,255,0.55)" stroke-width="10" stroke-linecap="round" stroke-linejoin="round"/>
</svg>
